<svg width="903" height="238" viewBox="0 -10 903 238" fill="none" xmlns="http://www.w3.org/2000/svg">
<style>
  .cs-pill { animation: cs-float 4s ease-in-out infinite; }
  .cs-pill--1 { animation-delay: 0s; }
  .cs-pill--2 { animation-delay: 1.1s; }
  .cs-pill--3 { animation-delay: 2.2s; }
  .cs-pill--4 { animation-delay: 3.3s; }
  @keyframes cs-float {
    0%, 100% { transform: translateY(0); }
    50% { transform: translateY(-8px); }
  }
</style>
<!-- Poppins heading -->
<path d="M811.23 168.489C802.174 168.489 794.111 166.938 787.04 163.837C779.969 160.735 774.386 156.517 770.293 151.183C766.199 145.725 763.904 139.646 763.408 132.947H794.855C795.227 136.545 796.902 139.46 799.879 141.693C802.857 143.926 806.516 145.043 810.858 145.043C814.828 145.043 817.867 144.298 819.976 142.81C822.209 141.197 823.325 139.15 823.325 136.669C823.325 133.692 821.775 131.521 818.673 130.156C815.572 128.668 810.548 127.055 803.601 125.318C796.158 123.581 789.955 121.783 784.993 119.922C780.031 117.937 775.751 114.898 772.153 110.804C768.556 106.586 766.757 100.942 766.757 93.8706C766.757 87.916 768.37 82.5197 771.595 77.6816C774.945 72.7195 779.783 68.8118 786.109 65.9585C792.56 63.1053 800.19 61.6787 808.997 61.6787C822.023 61.6787 832.257 64.9041 839.701 71.3549C847.268 77.8057 851.61 86.3653 852.726 97.0339H823.325C822.829 93.4364 821.217 90.5831 818.487 88.4742C815.882 86.3653 812.409 85.3109 808.067 85.3109C804.345 85.3109 801.492 86.0552 799.507 87.5438C797.522 88.9084 796.53 90.8313 796.53 93.3123C796.53 96.2896 798.081 98.5226 801.182 100.011C804.407 101.5 809.369 102.988 816.068 104.477C823.76 106.462 830.024 108.447 834.862 110.432C839.701 112.292 843.918 115.394 847.516 119.736C851.237 123.953 853.16 129.66 853.284 136.855C853.284 142.934 851.548 148.392 848.074 153.23C844.725 157.944 839.825 161.666 833.374 164.395C827.047 167.124 819.666 168.489 811.23 168.489Z" fill="url(#paint0_linear_14_40)"/>
<path d="M706.871 62.0508C719.028 62.0508 728.705 66.0205 735.9 73.9599C743.219 81.7753 746.878 92.5679 746.878 106.338V167H715.245V110.618C715.245 103.671 713.446 98.2744 709.848 94.4287C706.251 90.583 701.413 88.6602 695.334 88.6602C689.256 88.6602 684.418 90.583 680.82 94.4287C677.222 98.2744 675.424 103.671 675.424 110.618V167H643.604V63.1673H675.424V76.9372C678.649 72.3472 682.991 68.7497 688.449 66.1445C693.908 63.4154 700.048 62.0508 706.871 62.0508Z" fill="url(#paint1_linear_14_40)"/>
<path d="M604.728 52.375C599.145 52.375 594.555 50.7623 590.958 47.5369C587.484 44.1875 585.748 40.0937 585.748 35.2556C585.748 30.2935 587.484 26.1997 590.958 22.9744C594.555 19.6249 599.145 17.9502 604.728 17.9502C610.186 17.9502 614.652 19.6249 618.125 22.9744C621.723 26.1997 623.522 30.2935 623.522 35.2556C623.522 40.0937 621.723 44.1875 618.125 47.5369C614.652 50.7623 610.186 52.375 604.728 52.375ZM620.544 63.1676V167H588.725V63.1676H620.544Z" fill="url(#paint2_linear_14_40)"/>
<path d="M494.25 77.8677C497.351 73.0296 501.631 69.1219 507.09 66.1446C512.548 63.1674 518.937 61.6787 526.256 61.6787C534.816 61.6787 542.569 63.8496 549.516 68.1915C556.463 72.5334 561.921 78.736 565.891 86.7995C569.985 94.863 572.032 104.229 572.032 114.898C572.032 125.566 569.985 134.994 565.891 143.182C561.921 151.245 556.463 157.51 549.516 161.976C542.569 166.318 534.816 168.489 526.256 168.489C519.061 168.489 512.672 167 507.09 164.023C501.631 161.045 497.351 157.2 494.25 152.486V216.497H462.43V63.1674H494.25V77.8677ZM539.654 114.898C539.654 106.958 537.421 100.756 532.955 96.2896C528.613 91.6996 523.217 89.4046 516.766 89.4046C510.439 89.4046 505.043 91.6996 500.577 96.2896C496.235 100.88 494.064 107.144 494.064 115.084C494.064 123.023 496.235 129.288 500.577 133.878C505.043 138.468 510.439 140.763 516.766 140.763C523.093 140.763 528.489 138.468 532.955 133.878C537.421 129.164 539.654 122.837 539.654 114.898Z" fill="url(#paint3_linear_14_40)"/>
<path d="M367.955 77.8677C371.057 73.0296 375.337 69.1219 380.795 66.1446C386.253 63.1674 392.642 61.6787 399.961 61.6787C408.521 61.6787 416.274 63.8496 423.221 68.1915C430.168 72.5334 435.627 78.736 439.596 86.7995C443.69 94.863 445.737 104.229 445.737 114.898C445.737 125.566 443.69 134.994 439.596 143.182C435.627 151.245 430.168 157.51 423.221 161.976C416.274 166.318 408.521 168.489 399.961 168.489C392.766 168.489 386.377 167 380.795 164.023C375.337 161.045 371.057 157.2 367.955 152.486V216.497H336.136V63.1674H367.955V77.8677ZM413.359 114.898C413.359 106.958 411.126 100.756 406.66 96.2896C402.318 91.6996 396.922 89.4046 390.471 89.4046C384.144 89.4046 378.748 91.6996 374.282 96.2896C369.94 100.88 367.769 107.144 367.769 115.084C367.769 123.023 369.94 129.288 374.282 133.878C378.748 138.468 384.144 140.763 390.471 140.763C396.798 140.763 402.194 138.468 406.66 133.878C411.126 129.164 413.359 122.837 413.359 114.898Z" fill="url(#paint4_linear_14_40)"/>
<path d="M264.92 168.489C254.747 168.489 245.567 166.318 237.38 161.976C229.316 157.634 222.928 151.431 218.214 143.368C213.624 135.304 211.329 125.876 211.329 115.084C211.329 104.415 213.686 95.0491 218.4 86.9856C223.114 78.7981 229.564 72.5334 237.752 68.1915C245.939 63.8496 255.119 61.6787 265.292 61.6787C275.464 61.6787 284.644 63.8496 292.832 68.1915C301.019 72.5334 307.47 78.7981 312.184 86.9856C316.898 95.0491 319.255 104.415 319.255 115.084C319.255 125.752 316.836 135.18 311.998 143.368C307.284 151.431 300.771 157.634 292.459 161.976C284.272 166.318 275.092 168.489 264.92 168.489ZM264.92 140.949C270.998 140.949 276.146 138.716 280.364 134.25C284.706 129.784 286.877 123.395 286.877 115.084C286.877 106.772 284.768 100.383 280.55 95.9174C276.457 91.4515 271.37 89.2186 265.292 89.2186C259.089 89.2186 253.941 91.4515 249.847 95.9174C245.753 100.259 243.707 106.648 243.707 115.084C243.707 123.395 245.691 129.784 249.661 134.25C253.755 138.716 258.841 140.949 264.92 140.949Z" fill="url(#paint5_linear_14_40)"/>
<path d="M201.09 78.4262C201.09 85.9934 199.353 92.9404 195.88 99.2671C192.406 105.47 187.072 110.494 179.877 114.34C172.682 118.185 163.75 120.108 153.081 120.108H133.357V167H101.537V36.3721H153.081C163.502 36.3721 172.309 38.1708 179.505 41.7684C186.7 45.3659 192.096 50.3281 195.693 56.6548C199.291 62.9815 201.09 70.2386 201.09 78.4262ZM150.662 94.8012C156.741 94.8012 161.269 93.3746 164.246 90.5214C167.223 87.6681 168.712 83.6364 168.712 78.4262C168.712 73.2159 167.223 69.1842 164.246 66.331C161.269 63.4777 156.741 62.0511 150.662 62.0511H133.357V94.8012H150.662Z" fill="url(#paint6_linear_14_40)"/>
<!-- Regular pill -->
<g class="cs-pill cs-pill--1">
<rect width="163.216" height="53.3301" rx="26.665" fill="rgba(134,217,223,0.12)" stroke="rgba(134,217,223,0.3)" stroke-width="1"/>
<path d="M137.375 19.2729C137.903 18.2389 138.651 17.4359 139.619 16.8639C140.609 16.2919 141.808 16.0059 143.216 16.0059V19.1079H142.424C139.058 19.1079 137.375 20.9339 137.375 24.5859V34.4199H134.372V16.3359H137.375V19.2729Z" fill="white"/>
<path d="M110.949 25.3121C110.949 23.4641 111.323 21.8471 112.071 20.4611C112.819 19.0531 113.842 17.9641 115.14 17.1941C116.46 16.4241 117.923 16.0391 119.529 16.0391C121.113 16.0391 122.488 16.3801 123.654 17.0621C124.82 17.7441 125.689 18.6021 126.261 19.6361V16.3361H129.297V34.4201H126.261V31.0541C125.667 32.1101 124.776 32.9901 123.588 33.6941C122.422 34.3761 121.058 34.7171 119.496 34.7171C117.89 34.7171 116.438 34.3211 115.14 33.5291C113.842 32.7371 112.819 31.6261 112.071 30.1961C111.323 28.7661 110.949 27.1381 110.949 25.3121ZM126.261 25.3451C126.261 23.9811 125.986 22.7931 125.436 21.7811C124.886 20.7691 124.138 19.9991 123.192 19.4711C122.268 18.9211 121.245 18.6461 120.123 18.6461C119.001 18.6461 117.978 18.9101 117.054 19.4381C116.13 19.9661 115.393 20.7361 114.843 21.7481C114.293 22.7601 114.018 23.9481 114.018 25.3121C114.018 26.6981 114.293 27.9081 114.843 28.9421C115.393 29.9541 116.13 30.7351 117.054 31.2851C117.978 31.8131 119.001 32.0771 120.123 32.0771C121.245 32.0771 122.268 31.8131 123.192 31.2851C124.138 30.7351 124.886 29.9541 125.436 28.9421C125.986 27.9081 126.261 26.7091 126.261 25.3451Z" fill="white"/>
<path d="M106.953 10V34.42H103.95V10H106.953Z" fill="white"/>
<path d="M98.8798 16.3359V34.4199H95.8768V31.7469C95.3048 32.6709 94.5018 33.3969 93.4678 33.9249C92.4558 34.4309 91.3338 34.6839 90.1018 34.6839C88.6938 34.6839 87.4288 34.3979 86.3068 33.8259C85.1848 33.2319 84.2938 32.3519 83.6338 31.1859C82.9958 30.0199 82.6768 28.6009 82.6768 26.9289V16.3359H85.6468V26.5329C85.6468 28.3149 86.0978 29.6899 86.9998 30.6579C87.9018 31.6039 89.1338 32.0769 90.6958 32.0769C92.3018 32.0769 93.5668 31.5819 94.4908 30.5919C95.4148 29.6019 95.8768 28.1609 95.8768 26.2689V16.3359H98.8798Z" fill="white"/>
<path d="M67.9989 16.0391C69.5609 16.0391 70.9249 16.3801 72.0909 17.0621C73.2789 17.7441 74.1589 18.6021 74.7309 19.6361V16.3361H77.7669V34.8161C77.7669 36.4661 77.4149 37.9291 76.7109 39.2051C76.0069 40.5031 74.9949 41.5151 73.6749 42.2411C72.3769 42.9671 70.8589 43.3301 69.1209 43.3301C66.7449 43.3301 64.7649 42.7691 63.1809 41.6471C61.5969 40.5251 60.6619 38.9961 60.3759 37.0601H63.3459C63.6759 38.1601 64.3579 39.0401 65.3919 39.7001C66.4259 40.3821 67.6689 40.7231 69.1209 40.7231C70.7709 40.7231 72.1129 40.2061 73.1469 39.1721C74.2029 38.1381 74.7309 36.6861 74.7309 34.8161V31.0211C74.1369 32.0771 73.2569 32.9571 72.0909 33.6611C70.9249 34.3651 69.5609 34.7171 67.9989 34.7171C66.3929 34.7171 64.9299 34.3211 63.6099 33.5291C62.3119 32.7371 61.2889 31.6261 60.5409 30.1961C59.7929 28.7661 59.4189 27.1381 59.4189 25.3121C59.4189 23.4641 59.7929 21.8471 60.5409 20.4611C61.2889 19.0531 62.3119 17.9641 63.6099 17.1941C64.9299 16.4241 66.3929 16.0391 67.9989 16.0391ZM74.7309 25.3451C74.7309 23.9811 74.4559 22.7931 73.9059 21.7811C73.3559 20.7691 72.6079 19.9991 71.6619 19.4711C70.7379 18.9211 69.7149 18.6461 68.5929 18.6461C67.4709 18.6461 66.4479 18.9101 65.5239 19.4381C64.5999 19.9661 63.8629 20.7361 63.3129 21.7481C62.7629 22.7601 62.4879 23.9481 62.4879 25.3121C62.4879 26.6981 62.7629 27.9081 63.3129 28.9421C63.8629 29.9541 64.5999 30.7351 65.5239 31.2851C66.4479 31.8131 67.4709 32.0771 68.5929 32.0771C69.7149 32.0771 70.7379 31.8131 71.6619 31.2851C72.6079 30.7351 73.3559 29.9541 73.9059 28.9421C74.4559 27.9081 74.7309 26.7091 74.7309 25.3451Z" fill="white"/>
<path d="M56.5771 24.6851C56.5771 25.2571 56.5441 25.8621 56.4781 26.5001H42.0241C42.1341 28.2821 42.7391 29.6791 43.8391 30.6911C44.9611 31.6811 46.3141 32.1761 47.8981 32.1761C49.1961 32.1761 50.2741 31.8791 51.1321 31.2851C52.0121 30.6691 52.6281 29.8551 52.9801 28.8431H56.2141C55.7301 30.5811 54.7621 32.0001 53.3101 33.1001C51.8581 34.1781 50.0541 34.7171 47.8981 34.7171C46.1821 34.7171 44.6421 34.3321 43.2781 33.5621C41.9361 32.7921 40.8801 31.7031 40.1101 30.2951C39.3401 28.8651 38.9551 27.2151 38.9551 25.3451C38.9551 23.4751 39.3291 21.8361 40.0771 20.4281C40.8251 19.0201 41.8701 17.9421 43.2121 17.1941C44.5761 16.4241 46.1381 16.0391 47.8981 16.0391C49.6141 16.0391 51.1321 16.4131 52.4521 17.1611C53.7721 17.9091 54.7841 18.9431 55.4881 20.2631C56.2141 21.5611 56.5771 23.0351 56.5771 24.6851ZM53.4751 24.0581C53.4751 22.9141 53.2221 21.9351 52.7161 21.1211C52.2101 20.2851 51.5171 19.6581 50.6371 19.2401C49.7791 18.8001 48.8221 18.5801 47.7661 18.5801C46.2481 18.5801 44.9501 19.0641 43.8721 20.0321C42.8161 21.0001 42.2111 22.3421 42.0571 24.0581H53.4751Z" fill="white"/>
<path d="M32.111 34.4199L26.633 25.0149H23.003V34.4199H20V11.4189H27.425C29.163 11.4189 30.626 11.7159 31.814 12.3099C33.024 12.9039 33.926 13.7069 34.52 14.7189C35.114 15.7309 35.411 16.8859 35.411 18.1839C35.411 19.7679 34.949 21.1649 34.025 22.3749C33.123 23.5849 31.759 24.3879 29.933 24.7839L35.708 34.4199H32.111ZM23.003 22.6059H27.425C29.053 22.6059 30.274 22.2099 31.088 21.4179C31.902 20.6039 32.309 19.5259 32.309 18.1839C32.309 16.8199 31.902 15.7639 31.088 15.0159C30.296 14.2679 29.075 13.8939 27.425 13.8939H23.003V22.6059Z" fill="white"/>
</g>
<!-- Medium pill -->
<g class="cs-pill cs-pill--2">
<rect x="233" y="172" width="169.491" height="45.4104" rx="22.7052" fill="rgba(134,217,223,0.12)" stroke="rgba(134,217,223,0.3)" stroke-width="1"/>
<path d="M375.165 188.699C376.573 188.699 377.827 188.996 378.927 189.59C380.027 190.162 380.896 191.031 381.534 192.197C382.172 193.363 382.491 194.782 382.491 196.454V207.113H379.521V196.883C379.521 195.079 379.07 193.704 378.168 192.758C377.288 191.79 376.089 191.306 374.571 191.306C373.009 191.306 371.766 191.812 370.842 192.824C369.918 193.814 369.456 195.255 369.456 197.147V207.113H366.486V196.883C366.486 195.079 366.035 193.704 365.133 192.758C364.253 191.79 363.054 191.306 361.536 191.306C359.974 191.306 358.731 191.812 357.807 192.824C356.883 193.814 356.421 195.255 356.421 197.147V207.113H353.418V189.029H356.421V191.636C357.015 190.69 357.807 189.964 358.797 189.458C359.809 188.952 360.92 188.699 362.13 188.699C363.648 188.699 364.99 189.04 366.156 189.722C367.322 190.404 368.191 191.405 368.763 192.725C369.269 191.449 370.105 190.459 371.271 189.755C372.437 189.051 373.735 188.699 375.165 188.699Z" fill="white"/>
<path d="M348.348 189.029V207.113H345.345V204.44C344.773 205.364 343.97 206.09 342.936 206.618C341.924 207.124 340.802 207.377 339.57 207.377C338.162 207.377 336.897 207.091 335.775 206.519C334.653 205.925 333.762 205.045 333.102 203.879C332.464 202.713 332.145 201.294 332.145 199.622V189.029H335.115V199.226C335.115 201.008 335.566 202.383 336.468 203.351C337.37 204.297 338.602 204.77 340.164 204.77C341.77 204.77 343.035 204.275 343.959 203.285C344.883 202.295 345.345 200.854 345.345 198.962V189.029H348.348Z" fill="white"/>
<path d="M325.739 186.092C325.167 186.092 324.683 185.894 324.287 185.498C323.891 185.102 323.693 184.618 323.693 184.046C323.693 183.474 323.891 182.99 324.287 182.594C324.683 182.198 325.167 182 325.739 182C326.289 182 326.751 182.198 327.125 182.594C327.521 182.99 327.719 183.474 327.719 184.046C327.719 184.618 327.521 185.102 327.125 185.498C326.751 185.894 326.289 186.092 325.739 186.092ZM327.191 189.029V207.113H324.188V189.029H327.191Z" fill="white"/>
<path d="M300.766 198.005C300.766 196.157 301.14 194.54 301.888 193.154C302.636 191.746 303.659 190.657 304.957 189.887C306.277 189.117 307.751 188.732 309.379 188.732C310.787 188.732 312.096 189.062 313.306 189.722C314.516 190.36 315.44 191.207 316.078 192.263V182.693H319.114V207.113H316.078V203.714C315.484 204.792 314.604 205.683 313.438 206.387C312.272 207.069 310.908 207.41 309.346 207.41C307.74 207.41 306.277 207.014 304.957 206.222C303.659 205.43 302.636 204.319 301.888 202.889C301.14 201.459 300.766 199.831 300.766 198.005ZM316.078 198.038C316.078 196.674 315.803 195.486 315.253 194.474C314.703 193.462 313.955 192.692 313.009 192.164C312.085 191.614 311.062 191.339 309.94 191.339C308.818 191.339 307.795 191.603 306.871 192.131C305.947 192.659 305.21 193.429 304.66 194.441C304.11 195.453 303.835 196.641 303.835 198.005C303.835 199.391 304.11 200.601 304.66 201.635C305.21 202.647 305.947 203.428 306.871 203.978C307.795 204.506 308.818 204.77 309.94 204.77C311.062 204.77 312.085 204.506 313.009 203.978C313.955 203.428 314.703 202.647 315.253 201.635C315.803 200.601 316.078 199.402 316.078 198.038Z" fill="white"/>
<path d="M297.924 197.378C297.924 197.95 297.891 198.555 297.825 199.193H283.371C283.481 200.975 284.086 202.372 285.186 203.384C286.308 204.374 287.661 204.869 289.245 204.869C290.543 204.869 291.621 204.572 292.479 203.978C293.359 203.362 293.975 202.548 294.327 201.536H297.561C297.077 203.274 296.109 204.693 294.657 205.793C293.205 206.871 291.401 207.41 289.245 207.41C287.529 207.41 285.989 207.025 284.625 206.255C283.283 205.485 282.227 204.396 281.457 202.988C280.687 201.558 280.302 199.908 280.302 198.038C280.302 196.168 280.676 194.529 281.424 193.121C282.172 191.713 283.217 190.635 284.559 189.887C285.923 189.117 287.485 188.732 289.245 188.732C290.961 188.732 292.479 189.106 293.799 189.854C295.119 190.602 296.131 191.636 296.835 192.956C297.561 194.254 297.924 195.728 297.924 197.378ZM294.822 196.751C294.822 195.607 294.569 194.628 294.063 193.814C293.557 192.978 292.864 192.351 291.984 191.933C291.126 191.493 290.169 191.273 289.113 191.273C287.595 191.273 286.297 191.757 285.219 192.725C284.163 193.693 283.558 195.035 283.404 196.751H294.822Z" fill="white"/>
<path d="M276.331 184.277V207.113H273.328V190.085L265.738 207.113H263.626L256.003 190.052V207.113H253V184.277H256.234L264.682 203.153L273.13 184.277H276.331Z" fill="white"/>
</g>
<!-- Semi Bold pill -->
<g class="cs-pill cs-pill--3">
<rect x="513" y="142" width="200.166" height="45.4104" rx="22.7052" fill="rgba(134,217,223,0.12)" stroke="rgba(134,217,223,0.3)" stroke-width="1"/>
<path d="M674.818 168.005C674.818 166.157 675.192 164.54 675.94 163.154C676.688 161.746 677.711 160.657 679.009 159.887C680.329 159.117 681.803 158.732 683.431 158.732C684.839 158.732 686.148 159.062 687.358 159.722C688.568 160.36 689.492 161.207 690.13 162.263V152.693H693.166V177.113H690.13V173.714C689.536 174.792 688.656 175.683 687.49 176.387C686.324 177.069 684.96 177.41 683.398 177.41C681.792 177.41 680.329 177.014 679.009 176.222C677.711 175.43 676.688 174.319 675.94 172.889C675.192 171.459 674.818 169.831 674.818 168.005ZM690.13 168.038C690.13 166.674 689.855 165.486 689.305 164.474C688.755 163.462 688.007 162.692 687.061 162.164C686.137 161.614 685.114 161.339 683.992 161.339C682.87 161.339 681.847 161.603 680.923 162.131C679.999 162.659 679.262 163.429 678.712 164.441C678.162 165.453 677.887 166.641 677.887 168.005C677.887 169.391 678.162 170.601 678.712 171.635C679.262 172.647 679.999 173.428 680.923 173.978C681.847 174.506 682.87 174.77 683.992 174.77C685.114 174.77 686.137 174.506 687.061 173.978C688.007 173.428 688.755 172.647 689.305 171.635C689.855 170.601 690.13 169.402 690.13 168.038Z" fill="white"/>
<path d="M670.822 152.693V177.113H667.819V152.693H670.822Z" fill="white"/>
<path d="M654.598 177.41C652.904 177.41 651.364 177.025 649.978 176.255C648.614 175.485 647.536 174.396 646.744 172.988C645.974 171.558 645.589 169.908 645.589 168.038C645.589 166.19 645.985 164.562 646.777 163.154C647.591 161.724 648.691 160.635 650.077 159.887C651.463 159.117 653.014 158.732 654.73 158.732C656.446 158.732 657.997 159.117 659.383 159.887C660.769 160.635 661.858 161.713 662.65 163.121C663.464 164.529 663.871 166.168 663.871 168.038C663.871 169.908 663.453 171.558 662.617 172.988C661.803 174.396 660.692 175.485 659.284 176.255C657.876 177.025 656.314 177.41 654.598 177.41ZM654.598 174.77C655.676 174.77 656.688 174.517 657.634 174.011C658.58 173.505 659.339 172.746 659.911 171.734C660.505 170.722 660.802 169.49 660.802 168.038C660.802 166.586 660.516 165.354 659.944 164.342C659.372 163.33 658.624 162.582 657.7 162.098C656.776 161.592 655.775 161.339 654.697 161.339C653.597 161.339 652.585 161.592 651.661 162.098C650.759 162.582 650.033 163.33 649.483 164.342C648.933 165.354 648.658 166.586 648.658 168.038C648.658 169.512 648.922 170.755 649.45 171.767C650 172.779 650.726 173.538 651.628 174.044C652.53 174.528 653.52 174.77 654.598 174.77Z" fill="white"/>
<path d="M627.413 162.395C628.029 161.317 628.931 160.437 630.119 159.755C631.307 159.073 632.66 158.732 634.178 158.732C635.806 158.732 637.269 159.117 638.567 159.887C639.865 160.657 640.888 161.746 641.636 163.154C642.384 164.54 642.758 166.157 642.758 168.005C642.758 169.831 642.384 171.459 641.636 172.889C640.888 174.319 639.854 175.43 638.534 176.222C637.236 177.014 635.784 177.41 634.178 177.41C632.616 177.41 631.241 177.069 630.053 176.387C628.887 175.705 628.007 174.836 627.413 173.78V177.113H624.41V152.693H627.413V162.395ZM639.689 168.005C639.689 166.641 639.414 165.453 638.864 164.441C638.314 163.429 637.566 162.659 636.62 162.131C635.696 161.603 634.673 161.339 633.551 161.339C632.451 161.339 631.428 161.614 630.482 162.164C629.558 162.692 628.81 163.473 628.238 164.507C627.688 165.519 627.413 166.696 627.413 168.038C627.413 169.402 627.688 170.601 628.238 171.635C628.81 172.647 629.558 173.428 630.482 173.978C631.428 174.506 632.451 174.77 633.551 174.77C634.673 174.77 635.696 174.506 636.62 173.978C637.566 173.428 638.314 172.647 638.864 171.635C639.414 170.601 639.689 169.391 639.689 168.005Z" fill="white"/>
<path d="M609.042 156.092C608.47 156.092 607.986 155.894 607.59 155.498C607.194 155.102 606.996 154.618 606.996 154.046C606.996 153.474 607.194 152.99 607.59 152.594C607.986 152.198 608.47 152 609.042 152C609.592 152 610.054 152.198 610.428 152.594C610.824 152.99 611.022 153.474 611.022 154.046C611.022 154.618 610.824 155.102 610.428 155.498C610.054 155.894 609.592 156.092 609.042 156.092ZM610.494 159.029V177.113H607.491V159.029H610.494Z" fill="white"/>
<path d="M595.239 158.699C596.647 158.699 597.901 158.996 599.001 159.59C600.101 160.162 600.97 161.031 601.608 162.197C602.246 163.363 602.565 164.782 602.565 166.454V177.113H599.595V166.883C599.595 165.079 599.144 163.704 598.242 162.758C597.362 161.79 596.163 161.306 594.645 161.306C593.083 161.306 591.84 161.812 590.916 162.824C589.992 163.814 589.53 165.255 589.53 167.147V177.113H586.56V166.883C586.56 165.079 586.109 163.704 585.207 162.758C584.327 161.79 583.128 161.306 581.61 161.306C580.048 161.306 578.805 161.812 577.881 162.824C576.957 163.814 576.495 165.255 576.495 167.147V177.113H573.492V159.029H576.495V161.636C577.089 160.69 577.881 159.964 578.871 159.458C579.883 158.952 580.994 158.699 582.204 158.699C583.722 158.699 585.064 159.04 586.23 159.722C587.396 160.404 588.265 161.405 588.837 162.725C589.343 161.449 590.179 160.459 591.345 159.755C592.511 159.051 593.809 158.699 595.239 158.699Z" fill="white"/>
<path d="M569.528 167.378C569.528 167.95 569.495 168.555 569.429 169.193H554.975C555.085 170.975 555.69 172.372 556.79 173.384C557.912 174.374 559.265 174.869 560.849 174.869C562.147 174.869 563.225 174.572 564.083 173.978C564.963 173.362 565.579 172.548 565.931 171.536H569.165C568.681 173.274 567.713 174.693 566.261 175.793C564.809 176.871 563.005 177.41 560.849 177.41C559.133 177.41 557.593 177.025 556.229 176.255C554.887 175.485 553.831 174.396 553.061 172.988C552.291 171.558 551.906 169.908 551.906 168.038C551.906 166.168 552.28 164.529 553.028 163.121C553.776 161.713 554.821 160.635 556.163 159.887C557.527 159.117 559.089 158.732 560.849 158.732C562.565 158.732 564.083 159.106 565.403 159.854C566.723 160.602 567.735 161.636 568.439 162.956C569.165 164.254 569.528 165.728 569.528 167.378ZM566.426 166.751C566.426 165.607 566.173 164.628 565.667 163.814C565.161 162.978 564.468 162.351 563.588 161.933C562.73 161.493 561.773 161.273 560.717 161.273C559.199 161.273 557.901 161.757 556.823 162.725C555.767 163.693 555.162 165.035 555.008 166.751H566.426Z" fill="white"/>
<path d="M540.953 177.344C539.435 177.344 538.071 177.08 536.861 176.552C535.673 176.002 534.738 175.254 534.056 174.308C533.374 173.34 533.022 172.229 533 170.975H536.201C536.311 172.053 536.751 172.966 537.521 173.714C538.313 174.44 539.457 174.803 540.953 174.803C542.383 174.803 543.505 174.451 544.319 173.747C545.155 173.021 545.573 172.097 545.573 170.975C545.573 170.095 545.331 169.38 544.847 168.83C544.363 168.28 543.758 167.862 543.032 167.576C542.306 167.29 541.327 166.982 540.095 166.652C538.577 166.256 537.356 165.86 536.432 165.464C535.53 165.068 534.749 164.452 534.089 163.616C533.451 162.758 533.132 161.614 533.132 160.184C533.132 158.93 533.451 157.819 534.089 156.851C534.727 155.883 535.618 155.135 536.762 154.607C537.928 154.079 539.259 153.815 540.755 153.815C542.911 153.815 544.671 154.354 546.035 155.432C547.421 156.51 548.202 157.94 548.378 159.722H545.078C544.968 158.842 544.506 158.072 543.692 157.412C542.878 156.73 541.8 156.389 540.458 156.389C539.204 156.389 538.181 156.719 537.389 157.379C536.597 158.017 536.201 158.919 536.201 160.085C536.201 160.921 536.432 161.603 536.894 162.131C537.378 162.659 537.961 163.066 538.643 163.352C539.347 163.616 540.326 163.924 541.58 164.276C543.098 164.694 544.319 165.112 545.243 165.53C546.167 165.926 546.959 166.553 547.619 167.411C548.279 168.247 548.609 169.391 548.609 170.843C548.609 171.965 548.312 173.021 547.718 174.011C547.124 175.001 546.244 175.804 545.078 176.42C543.912 177.036 542.537 177.344 540.953 177.344Z" fill="white"/>
</g>
<!-- Bold pill -->
<g class="cs-pill cs-pill--4">
<rect x="796" y="122" width="106.694" height="44.7171" rx="22.3585" fill="rgba(134,217,223,0.12)" stroke="rgba(134,217,223,0.3)" stroke-width="1"/>
<path d="M864.346 147.312C864.346 145.464 864.72 143.847 865.468 142.461C866.216 141.053 867.239 139.964 868.537 139.194C869.857 138.424 871.331 138.039 872.959 138.039C874.367 138.039 875.676 138.369 876.886 139.029C878.096 139.667 879.02 140.514 879.658 141.57V132H882.694V156.42H879.658V153.021C879.064 154.099 878.184 154.99 877.018 155.694C875.852 156.376 874.488 156.717 872.926 156.717C871.32 156.717 869.857 156.321 868.537 155.529C867.239 154.737 866.216 153.626 865.468 152.196C864.72 150.766 864.346 149.138 864.346 147.312ZM879.658 147.345C879.658 145.981 879.383 144.793 878.833 143.781C878.283 142.769 877.535 141.999 876.589 141.471C875.665 140.921 874.642 140.646 873.52 140.646C872.398 140.646 871.375 140.91 870.451 141.438C869.527 141.966 868.79 142.736 868.24 143.748C867.69 144.76 867.415 145.948 867.415 147.312C867.415 148.698 867.69 149.908 868.24 150.942C868.79 151.954 869.527 152.735 870.451 153.285C871.375 153.813 872.398 154.077 873.52 154.077C874.642 154.077 875.665 153.813 876.589 153.285C877.535 152.735 878.283 151.954 878.833 150.942C879.383 149.908 879.658 148.709 879.658 147.345Z" fill="white"/>
<path d="M860.35 132V156.42H857.347V132H860.35Z" fill="white"/>
<path d="M844.125 156.717C842.431 156.717 840.891 156.332 839.505 155.562C838.141 154.792 837.063 153.703 836.271 152.295C835.501 150.865 835.116 149.215 835.116 147.345C835.116 145.497 835.512 143.869 836.304 142.461C837.118 141.031 838.218 139.942 839.604 139.194C840.99 138.424 842.541 138.039 844.257 138.039C845.973 138.039 847.524 138.424 848.91 139.194C850.296 139.942 851.385 141.02 852.177 142.428C852.991 143.836 853.398 145.475 853.398 147.345C853.398 149.215 852.98 150.865 852.144 152.295C851.33 153.703 850.219 154.792 848.811 155.562C847.403 156.332 845.841 156.717 844.125 156.717ZM844.125 154.077C845.203 154.077 846.215 153.824 847.161 153.318C848.107 152.812 848.866 152.053 849.438 151.041C850.032 150.029 850.329 148.797 850.329 147.345C850.329 145.893 850.043 144.661 849.471 143.649C848.899 142.637 848.151 141.889 847.227 141.405C846.303 140.899 845.302 140.646 844.224 140.646C843.124 140.646 842.112 140.899 841.188 141.405C840.286 141.889 839.56 142.637 839.01 143.649C838.46 144.661 838.185 145.893 838.185 147.345C838.185 148.819 838.449 150.062 838.977 151.074C839.527 152.086 840.253 152.845 841.155 153.351C842.057 153.835 843.047 154.077 844.125 154.077Z" fill="white"/>
<path d="M827.517 144.573C828.353 144.705 829.112 145.046 829.794 145.596C830.498 146.146 831.048 146.828 831.444 147.642C831.862 148.456 832.071 149.325 832.071 150.249C832.071 151.415 831.774 152.471 831.18 153.417C830.586 154.341 829.717 155.078 828.573 155.628C827.451 156.156 826.12 156.42 824.58 156.42H816V133.419H824.25C825.812 133.419 827.143 133.683 828.243 134.211C829.343 134.717 830.168 135.41 830.718 136.29C831.268 137.17 831.543 138.16 831.543 139.26C831.543 140.624 831.169 141.757 830.421 142.659C829.695 143.539 828.727 144.177 827.517 144.573ZM819.003 143.352H824.052C825.46 143.352 826.549 143.022 827.319 142.362C828.089 141.702 828.474 140.789 828.474 139.623C828.474 138.457 828.089 137.544 827.319 136.884C826.549 136.224 825.438 135.894 823.986 135.894H819.003V143.352ZM824.316 153.945C825.812 153.945 826.978 153.593 827.814 152.889C828.65 152.185 829.068 151.206 829.068 149.952C829.068 148.676 828.628 147.675 827.748 146.949C826.868 146.201 825.691 145.827 824.217 145.827H819.003V153.945H824.316Z" fill="white"/>
</g>
<defs>
<linearGradient id="paint0_linear_14_40" x1="476" y1="36.5" x2="455.178" y2="298.847" gradientUnits="userSpaceOnUse">
<stop stop-color="#27A7B0"/>
<stop offset="1" stop-color="#21595F"/>
</linearGradient>
<linearGradient id="paint1_linear_14_40" x1="476" y1="36.4999" x2="455.178" y2="298.847" gradientUnits="userSpaceOnUse">
<stop stop-color="#27A7B0"/>
<stop offset="1" stop-color="#21595F"/>
</linearGradient>
<linearGradient id="paint2_linear_14_40" x1="476" y1="36.5003" x2="455.178" y2="298.848" gradientUnits="userSpaceOnUse">
<stop stop-color="#27A7B0"/>
<stop offset="1" stop-color="#21595F"/>
</linearGradient>
<linearGradient id="paint3_linear_14_40" x1="476" y1="36.5" x2="455.178" y2="298.847" gradientUnits="userSpaceOnUse">
<stop stop-color="#27A7B0"/>
<stop offset="1" stop-color="#21595F"/>
</linearGradient>
<linearGradient id="paint4_linear_14_40" x1="476" y1="36.5" x2="455.178" y2="298.847" gradientUnits="userSpaceOnUse">
<stop stop-color="#27A7B0"/>
<stop offset="1" stop-color="#21595F"/>
</linearGradient>
<linearGradient id="paint5_linear_14_40" x1="476" y1="36.5" x2="455.178" y2="298.847" gradientUnits="userSpaceOnUse">
<stop stop-color="#27A7B0"/>
<stop offset="1" stop-color="#21595F"/>
</linearGradient>
<linearGradient id="paint6_linear_14_40" x1="476" y1="36.5002" x2="455.178" y2="298.848" gradientUnits="userSpaceOnUse">
<stop stop-color="#27A7B0"/>
<stop offset="1" stop-color="#21595F"/>
</linearGradient>
</defs>
</svg>